<svg xmlns="http://www.w3.org/2000/svg" xmlns:xlink="http://www.w3.org/1999/xlink" xmlns:lucid="lucid" width="1015" height="1482"><g transform="translate(114 -19)" lucid:page-tab-id="0_0"><path d="M440 86a6 6 0 0 1 6-6h388a6 6 0 0 1 6 6v1348a6 6 0 0 1-6 6H446a6 6 0 0 1-6-6z" stroke="gray" stroke-width="2" fill="#fff"/><use xlink:href="#a" transform="matrix(1,0,0,1,448,88) translate(76.69135802469137 17.77777777777778)"/><use xlink:href="#b" transform="matrix(1,0,0,1,448,88) translate(146.93827160493828 17.77777777777778)"/><use xlink:href="#c" transform="matrix(1,0,0,1,448,88) translate(233.2962962962963 17.77777777777778)"/><path d="M139.75 139.75c0 10.9-8.84 19.75-19.75 19.75-10.9 0-19.75-8.84-19.75-19.75 0-10.9 8.84-19.75 19.75-19.75 10.9 0 19.75 8.84 19.75 19.75z" stroke="gray" stroke-width="2" fill="#ddf4ff"/><path d="M120 159.5v49.3a20.7 20.7 0 0 0 3.2 11.07L160 278m-40-63.2L80 278m0-98.75h80" stroke="gray" stroke-width="2" fill="none"/><path d="M80 126a6 6 0 0 1 6-6h68a6 6 0 0 1 6 6v168a6 6 0 0 1-6 6H86a6 6 0 0 1-6-6z" fill="none"/><use xlink:href="#d" transform="matrix(1,0,0,1,0,278) translate(43.54938271604938 17.77777777777778)"/><use xlink:href="#e" transform="matrix(1,0,0,1,0,278) translate(100.33950617283949 17.77777777777778)"/><path d="M640 210c0 33.14-35.82 60-80 60s-80-26.86-80-60 35.82-60 80-60 80 26.86 80 60z" stroke="#3a414a" stroke-width="2" fill="#ddf4ff"/><use xlink:href="#f" transform="matrix(1,0,0,1,480,150) translate(16.604999999999997 63.15)"/><use xlink:href="#g" transform="matrix(1,0,0,1,480,150) translate(99.45500000000001 63.15)"/><path d="M122.04 210H478M122.06 210h-4.02" stroke="gray" stroke-width="2" fill="none"/><path d="M479 210v.4l.02.6h-1.05v-2h1.06z" stroke="gray" stroke-width=".05" fill="gray"/><path d="M139.75 499.75c0 10.9-8.84 19.75-19.75 19.75-10.9 0-19.75-8.84-19.75-19.75 0-10.9 8.84-19.75 19.75-19.75 10.9 0 19.75 8.84 19.75 19.75z" stroke="gray" stroke-width="2" fill="#ddf4ff"/><path d="M120 519.5v49.3a20.7 20.7 0 0 0 3.2 11.07L160 638m-40-63.2L80 638m0-98.75h80" stroke="gray" stroke-width="2" fill="none"/><path d="M80 486a6 6 0 0 1 6-6h68a6 6 0 0 1 6 6v168a6 6 0 0 1-6 6H86a6 6 0 0 1-6-6z" fill="none"/><use xlink:href="#h" transform="matrix(1,0,0,1,0,638) translate(23.734567901234584 17.77777777777778)"/><use xlink:href="#i" transform="matrix(1,0,0,1,0,638) translate(165.64814814814815 17.77777777777778)"/><use xlink:href="#e" transform="matrix(1,0,0,1,0,638) translate(71.94444444444444 44.44444444444444)"/><path d="M800 420c0 33.14-35.82 60-80 60s-80-26.86-80-60 35.82-60 80-60 80 26.86 80 60z" stroke="#3a414a" stroke-width="2" fill="#ddf4ff"/><use xlink:href="#j" transform="matrix(1,0,0,1,640,360) translate(25.729999999999997 63.15)"/><use xlink:href="#k" transform="matrix(1,0,0,1,640,360) translate(69.28 63.15)"/><path d="M800 600c0 33.14-35.82 60-80 60s-80-26.86-80-60 35.82-60 80-60 80 26.86 80 60z" stroke="#3a414a" stroke-width="2" fill="#ddf4ff"/><use xlink:href="#l" transform="matrix(1,0,0,1,640,540) translate(19.429999999999986 63.15)"/><use xlink:href="#m" transform="matrix(1,0,0,1,640,540) translate(90.63 63.15)"/><path d="M800 780c0 33.14-35.82 60-80 60s-80-26.86-80-60 35.82-60 80-60 80 26.86 80 60z" stroke="#3a414a" stroke-width="2" fill="#ddf4ff"/><use xlink:href="#n" transform="matrix(1,0,0,1,640,720) translate(45.580000000000005 63.15)"/><use xlink:href="#o" transform="matrix(1,0,0,1,640,720) translate(81.58000000000001 63.15)"/><path d="M800 960c0 33.14-35.82 60-80 60s-80-26.86-80-60 35.82-60 80-60 80 26.86 80 60z" stroke="#3a414a" stroke-width="2" fill="#ddf4ff"/><use xlink:href="#j" transform="matrix(1,0,0,1,640,900) translate(12.755000000000004 63.15)"/><use xlink:href="#p" transform="matrix(1,0,0,1,640,900) translate(56.30500000000001 63.15)"/><path d="M800 1140c0 33.14-35.82 60-80 60s-80-26.86-80-60 35.82-60 80-60 80 26.86 80 60z" stroke="#3a414a" stroke-width="2" fill="#ddf4ff"/><use xlink:href="#q" transform="matrix(1,0,0,1,640,1080) translate(19.604999999999997 63.15)"/><use xlink:href="#r" transform="matrix(1,0,0,1,640,1080) translate(89.555 63.15)"/><path d="M800 1320c0 33.14-35.82 60-80 60s-80-26.86-80-60 35.82-60 80-60 80 26.86 80 60z" stroke="#3a414a" stroke-width="2" fill="#ddf4ff"/><use xlink:href="#f" transform="matrix(1,0,0,1,640,1260) translate(11.079999999999993 63.15)"/><use xlink:href="#s" transform="matrix(1,0,0,1,640,1260) translate(93.93 63.15)"/><path d="M721 358h-2v-12.33h2zm-5.9-43.92l1.06.26 1.02.42.94.57.83.72.72.83.57.94.42 1.02.26 1.06.08 1.06v12.37h-2v-12.3l-.07-.8-.18-.77-.3-.73-.4-.67-.52-.6-.6-.5-.66-.4-.73-.3-.76-.2-.82-.06h-9.83v-2h9.9zM590.7 316h-4.97v-2h4.96zm-29.7-7.04l.07.82.18.76.3.73.4.67.52.6.6.5.66.4.73.3.76.2.82.06h9.83v2h-9.9l-1.07-.08-1.06-.26-1.02-.42-.94-.57-.83-.72-.72-.83-.57-.94-.42-1.02-.26-1.06-.08-1.06v-12.1h2zM694.27 316h-4.96v-2h4.97zM561 284.88h-2v-12.06h2z" stroke="gray" stroke-width=".05" fill="gray"/><path d="M721 359.03l-1-.03h-.92l-.08-1.03h2z" fill="gray"/><path d="M721.02 359.06l-1-.04h-.97l-.08-1.07h2.05zm-2-1.06l.08.98h.9l.98.02v-1zM571.04 289.67l-1.72 1.02-9.32-15.77-9.32 15.76-1.72-1.03L560 271z" stroke="gray" stroke-width=".05" fill="gray"/><use xlink:href="#t" transform="matrix(1,0,0,1,590.6913580246913,304.3333333333333) translate(0 14.222222222222223)"/><path d="M105.3 210H-34a6 6 0 0 0-6 6v348a6 6 0 0 0 6 6h152.03" stroke="gray" stroke-width="2" fill="none"/><path d="M117.07 210l-12.9 7.64v-15.28z" stroke="gray" stroke-width="2" fill="#fff"/><path d="M118 570h4.03" stroke="gray" stroke-width="2" fill="none"/><path d="M638 421H385.8l-.83.06-.76.2-.72.3-.67.4-.58.5-.5.6-.42.67-.3.73-.2.76-.05.82v126.93l-.08 1.06-.26 1.07-.4 1-.58.95-.72.83-.83.72-.94.57-1.02.42-1.05.25-1.06.08H121.5v-2h252.2l.83-.06.76-.2.72-.3.67-.4.58-.5.5-.6.42-.67.3-.72.2-.77.05-.8V425.95l.08-1.06.26-1.06.4-1.02.58-.94.72-.83.83-.72.94-.57 1.02-.42 1.05-.26 1.06-.08H638z" stroke="gray" stroke-width=".05" fill="gray"/><path d="M121.53 559.93h-4.03v-2h4.03z" stroke="gray" stroke-width=".05" fill="gray"/><path d="M639 420v.4l.02.6h-1.05v-2h1.06z" fill="gray"/><path d="M639.02 420v.4l.03.63h-1.1v-2.05h1.1zM638 419v1.96h1l-.02-.58v-.4l.02-.98zM721 538h-2v-10.67h2zm-5.9-38.92l1.06.26 1.02.42.94.57.83.72.72.83.57.94.42 1.02.26 1.06.08 1.06v10.7h-2v-10.62l-.07-.82-.18-.76-.3-.73-.4-.67-.52-.6-.6-.5-.66-.4-.73-.3-.76-.2-.82-.06h-9.83v-2h9.9zM593.13 501h-7.4v-2h7.4zM561 493.96l.07.82.18.76.3.73.4.67.52.6.6.5.66.4.73.3.76.2.82.06h9.83v2h-9.9l-1.07-.08-1.06-.26-1.02-.42-.94-.57-.83-.72-.72-.83-.57-.94-.42-1.02-.26-1.06-.08-1.06v-10.57h2zM694.27 501h-2.52v-2h2.52zM561 472.94h-2v-21.07h2zm0-31.6h-2v-21.07h2zm0-31.6h-2v-21.06h2zm0-31.6h-2v-21.06h2zm0-31.6h-2V325.5h2zm0-31.6h-2V293.9h2zm0-31.6h-2v-10.52h2z" stroke="gray" stroke-width=".05" fill="gray"/><path d="M721 539.03l-1-.03h-.92l-.08-1.03h2z" fill="gray"/><path d="M721.02 539.06l-1-.03h-.97l-.08-1.08h2.05zm-2-1.06l.08.98h.9l.98.02v-1zM571.04 289.67l-1.72 1.02-9.32-15.77-9.32 15.76-1.72-1.03L560 271z" stroke="gray" stroke-width=".05" fill="gray"/><use xlink:href="#t" transform="matrix(1,0,0,1,593.1303615117567,489.3333333333333) translate(0 14.222222222222223)"/><path d="M121.5 558.93h252.25a6 6 0 0 1 6 6V594a6 6 0 0 0 6 6H638M121.53 558.93h-4.03" stroke="gray" stroke-width="2" fill="none"/><path d="M639 600v.4l.02.6h-1.05v-2h1.06zM374.85 558l1.06.27 1.03.42.94.57.83.7.72.85.57.93.4 1.02.27 1.07.08 1.05v209.06l.06.82.2.76.3.73.4.67.52.6.6.5.66.4.73.3.77.2.82.06H638v2H385.7l-1.05-.08-1.06-.26-1.03-.42-.94-.57-.83-.72-.72-.83-.57-.94-.4-1.02-.27-1.06-.08-1.06V564.97l-.06-.82-.2-.76-.3-.74-.4-.66-.52-.6-.6-.5-.66-.42-.73-.3-.77-.18-.82-.07H121.5v-2h252.3z" stroke="gray" stroke-width=".05" fill="gray"/><path d="M121.53 559.93h-4.03v-2h4.03z" stroke="gray" stroke-width=".05" fill="gray"/><path d="M639 780v.4l.02.6h-1.05v-2h1.06z" fill="gray"/><path d="M639.02 780v.4l.03.63h-1.1v-2.05h1.1zM638 779V781h1l-.02-.58v-.4l.02-.98zM374.85 558l1.06.27 1.03.42.94.57.83.7.72.85.57.93.4 1.02.27 1.07.08 1.05v389.06l.06.82.2.76.3.73.4.67.52.6.6.5.66.4.73.3.77.2.82.06H638v2H385.7l-1.05-.08-1.06-.26-1.03-.42-.94-.57-.83-.72-.72-.83-.57-.94-.4-1.02-.27-1.06-.08-1.06V564.97l-.06-.82-.2-.76-.3-.74-.4-.66-.52-.6-.6-.5-.66-.42-.73-.3-.77-.18-.82-.07H121.5v-2h252.3z" stroke="gray" stroke-width=".05" fill="gray"/><path d="M121.53 559.93h-4.03v-2h4.03z" stroke="gray" stroke-width=".05" fill="gray"/><path d="M639 960v.4l.02.6h-1.05v-2h1.06z" fill="gray"/><path d="M639.02 960v.4l.03.63h-1.1v-2.05h1.1zM638 959V961h1l-.02-.58v-.4l.02-.98zM374.85 558l1.06.27 1.03.42.94.57.83.7.72.85.57.93.4 1.02.27 1.07.08 1.05v569.06l.06.82.2.76.3.73.4.67.52.6.6.5.66.4.73.3.77.2.82.06H638v2H385.7l-1.05-.08-1.06-.26-1.03-.42-.94-.57-.83-.72-.72-.83-.57-.94-.4-1.02-.27-1.06-.08-1.06V564.97l-.06-.82-.2-.76-.3-.74-.4-.66-.52-.6-.6-.5-.66-.42-.73-.3-.77-.18-.82-.07H121.5v-2h252.3z" stroke="gray" stroke-width=".05" fill="gray"/><path d="M121.53 559.93h-4.03v-2h4.03z" stroke="gray" stroke-width=".05" fill="gray"/><path d="M639 1140v.4l.02.6h-1.05v-2h1.06z" fill="gray"/><path d="M639.02 1140v.4l.03.63h-1.1v-2.06h1.1zm-1.02-.97v1.94h1l-.02-.57v-.4l.02-.97zM374.85 558l1.06.27 1.03.42.94.57.83.7.72.85.57.93.4 1.02.27 1.07.08 1.05v749.06l.06.82.2.76.3.73.4.67.52.6.6.5.66.4.73.3.77.2.82.06H638v2H385.7l-1.05-.08-1.06-.26-1.03-.42-.94-.57-.83-.72-.72-.83-.57-.94-.4-1.02-.27-1.06-.08-1.06V564.97l-.06-.82-.2-.76-.3-.74-.4-.66-.52-.6-.6-.5-.66-.42-.73-.3-.77-.18-.82-.07H121.5v-2h252.3z" stroke="gray" stroke-width=".05" fill="gray"/><path d="M121.53 559.93h-4.03v-2h4.03z" stroke="gray" stroke-width=".05" fill="gray"/><path d="M639 1320v.4l.02.6h-1.05v-2h1.06z" fill="gray"/><path d="M639.02 1320v.4l.03.63h-1.1v-2.06h1.1zm-1.02-.97v1.94h1l-.02-.57v-.4l.02-.97zM721 718h-2v-10.67h2zm-5.9-38.92l1.06.26 1.02.42.94.57.83.72.72.83.57.94.42 1.02.26 1.06.08 1.06v10.7h-2v-10.62l-.07-.82-.18-.76-.3-.73-.4-.67-.52-.6-.6-.5-.66-.4-.73-.3-.76-.2-.82-.06h-9.83v-2h9.9zM591.72 681h-6v-2h6zM561 673.96l.07.82.18.76.3.73.4.67.52.6.6.5.66.4.73.3.76.2.82.06h9.83v2h-9.9l-1.07-.08-1.06-.26-1.02-.42-.94-.57-.83-.72-.72-.83-.57-.94-.42-1.02-.26-1.06-.08-1.06V663.7h2zM694.27 681h-3.93v-2h3.93zM561 653.43h-2v-20.58h2zm0-30.86h-2V602h2zm0-30.86h-2v-20.57h2zm0-30.85h-2v-20.58h2zm0-30.86h-2v-20.6h2zm0-30.87h-2v-20.58h2zm0-30.86h-2V447.7h2zm0-30.86h-2v-20.57h2zm0-30.85h-2v-20.58h2zm0-30.87h-2V355.1h2zm0-30.86h-2v-20.57h2zm0-30.86h-2V293.4h2zm0-30.85h-2v-10.28h2z" stroke="gray" stroke-width=".05" fill="gray"/><path d="M721 719.03l-1-.03h-.92l-.08-1.03h2z" fill="gray"/><path d="M721.02 719.06l-1-.03h-.97l-.08-1.08h2.05zm-2-1.06l.08.98h.9l.98.02v-1zM571.04 289.67l-1.72 1.02-9.32-15.77-9.32 15.76-1.72-1.03L560 271z" stroke="gray" stroke-width=".05" fill="gray"/><use xlink:href="#t" transform="matrix(1,0,0,1,591.7187226719246,669.3333333333334) translate(0 14.222222222222223)"/><path d="M721 898h-2v-10.67h2zm-5.9-38.92l1.06.26 1.02.42.94.57.83.72.72.83.57.94.42 1.02.26 1.06.08 1.06v10.7h-2v-10.62l-.07-.82-.18-.76-.3-.73-.4-.67-.52-.6-.6-.5-.66-.4-.73-.3-.76-.2-.82-.06h-9.83v-2h9.9zM587.68 861h-1.95v-2h1.95zM561 853.96l.07.82.18.76.3.73.4.67.52.6.6.5.66.4.73.3.76.2.82.06h9.83v2h-9.9l-1.07-.08-1.06-.26-1.02-.42-.94-.57-.83-.72-.72-.83-.57-.94-.42-1.02-.26-1.06-.08-1.06V843.8h2zM694.27 861h-7.97v-2h7.97zM561 833.6h-2v-20.38h2zm0-30.58h-2v-20.4h2zm0-30.6h-2v-20.38h2zm0-30.58h-2v-20.4h2zm0-30.6h-2v-20.38h2zm0-30.58h-2v-20.4h2zm0-30.58h-2v-20.4h2zm0-30.6h-2V599.1h2zm0-30.58h-2v-20.4h2zm0-30.6h-2v-20.38h2zm0-30.58h-2v-20.4h2zm0-30.6h-2v-20.38h2zm0-30.57h-2v-20.4h2zm0-30.6h-2v-20.38h2zm0-30.58h-2v-20.4h2zm0-30.6h-2V354.4h2zm0-30.58h-2v-20.4h2zm0-30.6h-2v-20.4h2zm0-30.6h-2v-10.18h2z" stroke="gray" stroke-width=".05" fill="gray"/><path d="M721 899.03l-1-.03h-.92l-.08-1.03h2z" fill="gray"/><path d="M721.02 899.06l-1-.03h-.97l-.08-1.08h2.05zm-2-1.06l.08.98h.9l.98.02v-1zM571.04 289.67l-1.72 1.02-9.32-15.77-9.32 15.76-1.72-1.03L560 271z" stroke="gray" stroke-width=".05" fill="gray"/><g><use xlink:href="#t" transform="matrix(1,0,0,1,587.6795257486341,849.3333333333334) translate(0 14.222222222222223)"/></g><path d="M721 1078h-2v-10.67h2zm-5.9-38.92l1.06.26 1.02.42.94.57.83.72.72.83.57.94.42 1.02.26 1.06.08 1.06v10.7h-2v-10.62l-.07-.82-.18-.76-.3-.73-.4-.67-.52-.6-.6-.5-.66-.4-.73-.3-.76-.2-.82-.06h-9.83v-2h9.9zM592.98 1041h-7.25v-2h7.25zm-31.98-7.04l.07.82.18.76.3.73.4.67.52.6.6.5.66.4.73.3.76.2.82.06h9.83v2h-9.9l-1.07-.08-1.06-.26-1.02-.42-.94-.57-.83-.72-.72-.83-.57-.94-.42-1.02-.26-1.06-.08-1.06v-10.2h2zm133.27 7.04h-2.67v-2h2.67zM561 1013.7h-2v-20.3h2zm0-30.45h-2v-20.3h2zm0-30.44h-2v-20.3h2zm0-30.44h-2v-20.3h2zm0-30.45h-2v-20.28h2zm0-30.43h-2v-20.3h2zm0-30.45h-2v-20.3h2zm0-30.45h-2v-20.3h2zm0-30.45h-2v-20.3h2zm0-30.44h-2v-20.3h2zm0-30.45h-2v-20.3h2zm0-30.45h-2v-20.3h2zm0-30.44h-2v-20.3h2zm0-30.45h-2v-20.3h2zm0-30.46h-2v-20.3h2zm0-30.45h-2v-20.3h2zm0-30.46h-2v-20.3h2zm0-30.44h-2v-20.3h2zm0-30.45h-2v-20.3h2zm0-30.45h-2v-20.3h2zm0-30.44h-2v-20.3h2zm0-30.45h-2V354h2zm0-30.44h-2v-20.3h2zm0-30.44h-2v-20.3h2zm0-30.45h-2v-10.15h2z" stroke="gray" stroke-width=".05" fill="gray"/><path d="M721 1079.03l-1-.03h-.92l-.08-1.03h2z" fill="gray"/><path d="M721.02 1079.06l-1-.03h-.97l-.08-1.08h2.05zm-2-1.06l.08.98h.9l.98.03v-1zM571.04 289.67l-1.72 1.02-9.32-15.77-9.32 15.76-1.72-1.03L560 271z" stroke="gray" stroke-width=".05" fill="gray"/><g><use xlink:href="#t" transform="matrix(1,0,0,1,592.9785924778275,1029.3333333333333) translate(0 14.222222222222223)"/></g><path d="M721 1258h-2v-10.67h2zm-5.9-38.92l1.06.26 1.02.42.94.57.83.72.72.83.57.94.42 1.02.26 1.06.08 1.06v10.7h-2v-10.62l-.07-.82-.18-.76-.3-.73-.4-.67-.52-.6-.6-.5-.66-.4-.73-.3-.76-.2-.82-.06h-9.83v-2h9.9zM591.63 1221h-5.9v-2h5.9zm-30.63-7.04l.07.82.18.76.3.73.4.67.52.6.6.5.66.4.73.3.76.2.82.06h9.83v2h-9.9l-1.07-.08-1.06-.26-1.02-.42-.94-.57-.83-.72-.72-.83-.57-.94-.42-1.02-.26-1.06-.08-1.06v-10.16h2zm133.27 7.04h-4.02v-2h4.02zM561 1193.76h-2v-20.24h2zm0-30.36h-2v-20.24h2zm0-30.36h-2v-20.24h2zm0-30.36h-2v-20.24h2zm0-30.36h-2v-20.24h2zm0-30.36h-2v-20.24h2zm0-30.37h-2v-20.25h2zm0-30.37h-2V961h2zm0-30.36h-2v-20.24h2zm0-30.36h-2v-20.23h2zm0-30.35h-2V869.9h2zm0-30.36h-2v-20.25h2zm0-30.37h-2V809.2h2zm0-30.36h-2v-20.24h2zm0-30.36h-2v-20.23h2zm0-30.35h-2V718.1h2zm0-30.36h-2v-20.25h2zm0-30.37h-2V657.4h2zm0-30.36h-2v-20.24h2zm0-30.36h-2v-20.23h2zm0-30.36h-2V566.3h2zm0-30.36h-2v-20.24h2zm0-30.36h-2v-20.24h2zm0-30.36h-2v-20.24h2zm0-30.36h-2v-20.24h2zm0-30.36h-2V414.5h2zm0-30.36h-2v-20.24h2zm0-30.36h-2v-20.24h2zm0-30.36h-2v-20.24h2zm0-30.36h-2v-20.24h2zm0-30.36h-2v-10.12h2z" stroke="gray" stroke-width=".05" fill="gray"/><path d="M721 1259.03l-1-.03h-.92l-.08-1.03h2z" fill="gray"/><path d="M721.02 1259.06l-1-.03h-.97l-.08-1.08h2.05zm-2-1.06l.08.98h.9l.98.03v-1zM571.04 289.67l-1.72 1.02-9.32-15.77-9.32 15.76-1.72-1.03L560 271z" stroke="gray" stroke-width=".05" fill="gray"/><g><use xlink:href="#t" transform="matrix(1,0,0,1,591.6275310097402,1209.3333333333333) translate(0 14.222222222222223)"/></g><defs><path fill="#333" d="M140-251c81 0 123 46 123 126C263-46 219 4 140 4 59 4 17-45 17-125s42-126 123-126zm0 227c63 0 89-41 89-101s-29-99-89-99c-61 0-89 39-89 99S79-25 140-24" id="u"/><path fill="#333" d="M117-194c89-4 53 116 60 194h-32v-121c0-31-8-49-39-48C34-167 62-67 57 0H25l-1-190h30c1 10-1 24 2 32 11-22 29-35 61-36" id="v"/><path fill="#333" d="M24 0v-261h32V0H24" id="w"/><path fill="#333" d="M24-231v-30h32v30H24zM24 0v-190h32V0H24" id="x"/><path fill="#333" d="M100-194c63 0 86 42 84 106H49c0 40 14 67 53 68 26 1 43-12 49-29l28 8c-11 28-37 45-77 45C44 4 14-33 15-96c1-61 26-98 85-98zm52 81c6-60-76-77-97-28-3 7-6 17-6 28h103" id="y"/><g id="a"><use transform="matrix(0.06172839506172839,0,0,0.06172839506172839,0,0)" xlink:href="#u"/><use transform="matrix(0.06172839506172839,0,0,0.06172839506172839,17.28395061728395,0)" xlink:href="#v"/><use transform="matrix(0.06172839506172839,0,0,0.06172839506172839,29.629629629629626,0)" xlink:href="#w"/><use transform="matrix(0.06172839506172839,0,0,0.06172839506172839,34.50617283950617,0)" xlink:href="#x"/><use transform="matrix(0.06172839506172839,0,0,0.06172839506172839,39.382716049382715,0)" xlink:href="#v"/><use transform="matrix(0.06172839506172839,0,0,0.06172839506172839,51.72839506172839,0)" xlink:href="#y"/></g><path fill="#333" d="M160-131c35 5 61 23 61 61C221 17 115-2 30 0v-248c76 3 177-17 177 60 0 33-19 50-47 57zm-97-11c50-1 110 9 110-42 0-47-63-36-110-37v79zm0 115c55-2 124 14 124-45 0-56-70-42-124-44v89" id="z"/><path fill="#333" d="M141-36C126-15 110 5 73 4 37 3 15-17 15-53c-1-64 63-63 125-63 3-35-9-54-41-54-24 1-41 7-42 31l-33-3c5-37 33-52 76-52 45 0 72 20 72 64v82c-1 20 7 32 28 27v20c-31 9-61-2-59-35zM48-53c0 20 12 33 32 33 41-3 63-29 60-74-43 2-92-5-92 41" id="A"/><path fill="#333" d="M143 0L79-87 56-68V0H24v-261h32v163l83-92h37l-77 82L181 0h-38" id="B"/><path fill="#333" d="M177-190C167-65 218 103 67 71c-23-6-38-20-44-43l32-5c15 47 100 32 89-28v-30C133-14 115 1 83 1 29 1 15-40 15-95c0-56 16-97 71-98 29-1 48 16 59 35 1-10 0-23 2-32h30zM94-22c36 0 50-32 50-73 0-42-14-75-50-75-39 0-46 34-46 75s6 73 46 73" id="C"/><g id="b"><use transform="matrix(0.06172839506172839,0,0,0.06172839506172839,0,0)" xlink:href="#z"/><use transform="matrix(0.06172839506172839,0,0,0.06172839506172839,14.814814814814813,0)" xlink:href="#A"/><use transform="matrix(0.06172839506172839,0,0,0.06172839506172839,27.160493827160494,0)" xlink:href="#v"/><use transform="matrix(0.06172839506172839,0,0,0.06172839506172839,39.50617283950617,0)" xlink:href="#B"/><use transform="matrix(0.06172839506172839,0,0,0.06172839506172839,50.61728395061728,0)" xlink:href="#x"/><use transform="matrix(0.06172839506172839,0,0,0.06172839506172839,55.49382716049382,0)" xlink:href="#v"/><use transform="matrix(0.06172839506172839,0,0,0.06172839506172839,67.8395061728395,0)" xlink:href="#C"/></g><path fill="#333" d="M185-189c-5-48-123-54-124 2 14 75 158 14 163 119 3 78-121 87-175 55-17-10-28-26-33-46l33-7c5 56 141 63 141-1 0-78-155-14-162-118-5-82 145-84 179-34 5 7 8 16 11 25" id="D"/><path fill="#333" d="M179-190L93 31C79 59 56 82 12 73V49c39 6 53-20 64-50L1-190h34L92-34l54-156h33" id="E"/><path fill="#333" d="M135-143c-3-34-86-38-87 0 15 53 115 12 119 90S17 21 10-45l28-5c4 36 97 45 98 0-10-56-113-15-118-90-4-57 82-63 122-42 12 7 21 19 24 35" id="F"/><path fill="#333" d="M59-47c-2 24 18 29 38 22v24C64 9 27 4 27-40v-127H5v-23h24l9-43h21v43h35v23H59v120" id="G"/><path fill="#333" d="M210-169c-67 3-38 105-44 169h-31v-121c0-29-5-50-35-48C34-165 62-65 56 0H25l-1-190h30c1 10-1 24 2 32 10-44 99-50 107 0 11-21 27-35 58-36 85-2 47 119 55 194h-31v-121c0-29-5-49-35-48" id="H"/><g id="c"><use transform="matrix(0.06172839506172839,0,0,0.06172839506172839,0,0)" xlink:href="#D"/><use transform="matrix(0.06172839506172839,0,0,0.06172839506172839,14.814814814814813,0)" xlink:href="#E"/><use transform="matrix(0.06172839506172839,0,0,0.06172839506172839,25.925925925925924,0)" xlink:href="#F"/><use transform="matrix(0.06172839506172839,0,0,0.06172839506172839,37.03703703703704,0)" xlink:href="#G"/><use transform="matrix(0.06172839506172839,0,0,0.06172839506172839,43.20987654320988,0)" xlink:href="#y"/><use transform="matrix(0.06172839506172839,0,0,0.06172839506172839,55.55555555555556,0)" xlink:href="#H"/></g><path fill="gray" d="M160-131c35 5 61 23 61 61C221 17 115-2 30 0v-248c76 3 177-17 177 60 0 33-19 50-47 57zm-97-11c50-1 110 9 110-42 0-47-63-36-110-37v79zm0 115c55-2 124 14 124-45 0-56-70-42-124-44v89" id="I"/><path fill="gray" d="M141-36C126-15 110 5 73 4 37 3 15-17 15-53c-1-64 63-63 125-63 3-35-9-54-41-54-24 1-41 7-42 31l-33-3c5-37 33-52 76-52 45 0 72 20 72 64v82c-1 20 7 32 28 27v20c-31 9-61-2-59-35zM48-53c0 20 12 33 32 33 41-3 63-29 60-74-43 2-92-5-92 41" id="J"/><path fill="gray" d="M117-194c89-4 53 116 60 194h-32v-121c0-31-8-49-39-48C34-167 62-67 57 0H25l-1-190h30c1 10-1 24 2 32 11-22 29-35 61-36" id="K"/><path fill="gray" d="M143 0L79-87 56-68V0H24v-261h32v163l83-92h37l-77 82L181 0h-38" id="L"/><g id="d"><use transform="matrix(0.06172839506172839,0,0,0.06172839506172839,0,0)" xlink:href="#I"/><use transform="matrix(0.06172839506172839,0,0,0.06172839506172839,14.814814814814813,0)" xlink:href="#J"/><use transform="matrix(0.06172839506172839,0,0,0.06172839506172839,27.160493827160494,0)" xlink:href="#K"/><use transform="matrix(0.06172839506172839,0,0,0.06172839506172839,39.50617283950617,0)" xlink:href="#L"/></g><path fill="gray" d="M212-179c-10-28-35-45-73-45-59 0-87 40-87 99 0 60 29 101 89 101 43 0 62-24 78-52l27 14C228-24 195 4 139 4 59 4 22-46 18-125c-6-104 99-153 187-111 19 9 31 26 39 46" id="M"/><path fill="gray" d="M84 4C-5 8 30-112 23-190h32v120c0 31 7 50 39 49 72-2 45-101 50-169h31l1 190h-30c-1-10 1-25-2-33-11 22-28 36-60 37" id="N"/><path fill="gray" d="M135-143c-3-34-86-38-87 0 15 53 115 12 119 90S17 21 10-45l28-5c4 36 97 45 98 0-10-56-113-15-118-90-4-57 82-63 122-42 12 7 21 19 24 35" id="O"/><path fill="gray" d="M59-47c-2 24 18 29 38 22v24C64 9 27 4 27-40v-127H5v-23h24l9-43h21v43h35v23H59v120" id="P"/><path fill="gray" d="M100-194c62-1 85 37 85 99 1 63-27 99-86 99S16-35 15-95c0-66 28-99 85-99zM99-20c44 1 53-31 53-75 0-43-8-75-51-75s-53 32-53 75 10 74 51 75" id="Q"/><path fill="gray" d="M210-169c-67 3-38 105-44 169h-31v-121c0-29-5-50-35-48C34-165 62-65 56 0H25l-1-190h30c1 10-1 24 2 32 10-44 99-50 107 0 11-21 27-35 58-36 85-2 47 119 55 194h-31v-121c0-29-5-49-35-48" id="R"/><path fill="gray" d="M100-194c63 0 86 42 84 106H49c0 40 14 67 53 68 26 1 43-12 49-29l28 8c-11 28-37 45-77 45C44 4 14-33 15-96c1-61 26-98 85-98zm52 81c6-60-76-77-97-28-3 7-6 17-6 28h103" id="S"/><path fill="gray" d="M114-163C36-179 61-72 57 0H25l-1-190h30c1 12-1 29 2 39 6-27 23-49 58-41v29" id="T"/><g id="e"><use transform="matrix(0.06172839506172839,0,0,0.06172839506172839,0,0)" xlink:href="#M"/><use transform="matrix(0.06172839506172839,0,0,0.06172839506172839,15.987654320987653,0)" xlink:href="#N"/><use transform="matrix(0.06172839506172839,0,0,0.06172839506172839,28.333333333333332,0)" xlink:href="#O"/><use transform="matrix(0.06172839506172839,0,0,0.06172839506172839,39.44444444444444,0)" xlink:href="#P"/><use transform="matrix(0.06172839506172839,0,0,0.06172839506172839,45.617283950617285,0)" xlink:href="#Q"/><use transform="matrix(0.06172839506172839,0,0,0.06172839506172839,57.96296296296296,0)" xlink:href="#R"/><use transform="matrix(0.06172839506172839,0,0,0.06172839506172839,76.41975308641975,0)" xlink:href="#S"/><use transform="matrix(0.06172839506172839,0,0,0.06172839506172839,88.76543209876543,0)" xlink:href="#T"/></g><path d="M212-179c-10-28-35-45-73-45-59 0-87 40-87 99 0 60 29 101 89 101 43 0 62-24 78-52l27 14C228-24 195 4 139 4 59 4 22-46 18-125c-6-104 99-153 187-111 19 9 31 26 39 46" id="U"/><path d="M84 4C-5 8 30-112 23-190h32v120c0 31 7 50 39 49 72-2 45-101 50-169h31l1 190h-30c-1-10 1-25-2-33-11 22-28 36-60 37" id="V"/><path d="M135-143c-3-34-86-38-87 0 15 53 115 12 119 90S17 21 10-45l28-5c4 36 97 45 98 0-10-56-113-15-118-90-4-57 82-63 122-42 12 7 21 19 24 35" id="W"/><path d="M59-47c-2 24 18 29 38 22v24C64 9 27 4 27-40v-127H5v-23h24l9-43h21v43h35v23H59v120" id="X"/><path d="M100-194c62-1 85 37 85 99 1 63-27 99-86 99S16-35 15-95c0-66 28-99 85-99zM99-20c44 1 53-31 53-75 0-43-8-75-51-75s-53 32-53 75 10 74 51 75" id="Y"/><path d="M210-169c-67 3-38 105-44 169h-31v-121c0-29-5-50-35-48C34-165 62-65 56 0H25l-1-190h30c1 10-1 24 2 32 10-44 99-50 107 0 11-21 27-35 58-36 85-2 47 119 55 194h-31v-121c0-29-5-49-35-48" id="Z"/><path d="M100-194c63 0 86 42 84 106H49c0 40 14 67 53 68 26 1 43-12 49-29l28 8c-11 28-37 45-77 45C44 4 14-33 15-96c1-61 26-98 85-98zm52 81c6-60-76-77-97-28-3 7-6 17-6 28h103" id="aa"/><path d="M114-163C36-179 61-72 57 0H25l-1-190h30c1 12-1 29 2 39 6-27 23-49 58-41v29" id="ab"/><g id="f"><use transform="matrix(0.05,0,0,0.05,0,0)" xlink:href="#U"/><use transform="matrix(0.05,0,0,0.05,12.950000000000001,0)" xlink:href="#V"/><use transform="matrix(0.05,0,0,0.05,22.950000000000003,0)" xlink:href="#W"/><use transform="matrix(0.05,0,0,0.05,31.950000000000003,0)" xlink:href="#X"/><use transform="matrix(0.05,0,0,0.05,36.95,0)" xlink:href="#Y"/><use transform="matrix(0.05,0,0,0.05,46.95,0)" xlink:href="#Z"/><use transform="matrix(0.05,0,0,0.05,61.900000000000006,0)" xlink:href="#aa"/><use transform="matrix(0.05,0,0,0.05,71.9,0)" xlink:href="#ab"/></g><path d="M30 0v-248h33v221h125V0H30" id="ac"/><path d="M177-190C167-65 218 103 67 71c-23-6-38-20-44-43l32-5c15 47 100 32 89-28v-30C133-14 115 1 83 1 29 1 15-40 15-95c0-56 16-97 71-98 29-1 48 16 59 35 1-10 0-23 2-32h30zM94-22c36 0 50-32 50-73 0-42-14-75-50-75-39 0-46 34-46 75s6 73 46 73" id="ad"/><path d="M24-231v-30h32v30H24zM24 0v-190h32V0H24" id="ae"/><path d="M117-194c89-4 53 116 60 194h-32v-121c0-31-8-49-39-48C34-167 62-67 57 0H25l-1-190h30c1 10-1 24 2 32 11-22 29-35 61-36" id="af"/><g id="g"><use transform="matrix(0.05,0,0,0.05,0,0)" xlink:href="#ac"/><use transform="matrix(0.05,0,0,0.05,10,0)" xlink:href="#Y"/><use transform="matrix(0.05,0,0,0.05,20,0)" xlink:href="#ad"/><use transform="matrix(0.05,0,0,0.05,30,0)" xlink:href="#ae"/><use transform="matrix(0.05,0,0,0.05,33.95,0)" xlink:href="#af"/></g><path fill="gray" d="M205 0l-28-72H64L36 0H1l101-248h38L239 0h-34zm-38-99l-47-123c-12 45-31 82-46 123h93" id="ag"/><path fill="gray" d="M106-169C34-169 62-67 57 0H25v-261h32l-1 103c12-21 28-36 61-36 89 0 53 116 60 194h-32v-121c2-32-8-49-39-48" id="ah"/><path fill="gray" d="M24-231v-30h32v30H24zM24 0v-190h32V0H24" id="ai"/><path fill="gray" d="M96-169c-40 0-48 33-48 73s9 75 48 75c24 0 41-14 43-38l32 2c-6 37-31 61-74 61-59 0-76-41-82-99-10-93 101-131 147-64 4 7 5 14 7 22l-32 3c-4-21-16-35-41-35" id="aj"/><path fill="gray" d="M85-194c31 0 48 13 60 33l-1-100h32l1 261h-30c-2-10 0-23-3-31C134-8 116 4 85 4 32 4 16-35 15-94c0-66 23-100 70-100zm9 24c-40 0-46 34-46 75 0 40 6 74 45 74 42 0 51-32 51-76 0-42-9-74-50-73" id="ak"/><g id="h"><use transform="matrix(0.06172839506172839,0,0,0.06172839506172839,0,0)" xlink:href="#ag"/><use transform="matrix(0.06172839506172839,0,0,0.06172839506172839,14.814814814814813,0)" xlink:href="#N"/><use transform="matrix(0.06172839506172839,0,0,0.06172839506172839,27.160493827160494,0)" xlink:href="#P"/><use transform="matrix(0.06172839506172839,0,0,0.06172839506172839,33.333333333333336,0)" xlink:href="#ah"/><use transform="matrix(0.06172839506172839,0,0,0.06172839506172839,45.67901234567901,0)" xlink:href="#S"/><use transform="matrix(0.06172839506172839,0,0,0.06172839506172839,58.02469135802469,0)" xlink:href="#K"/><use transform="matrix(0.06172839506172839,0,0,0.06172839506172839,70.37037037037037,0)" xlink:href="#P"/><use transform="matrix(0.06172839506172839,0,0,0.06172839506172839,76.5432098765432,0)" xlink:href="#ai"/><use transform="matrix(0.06172839506172839,0,0,0.06172839506172839,81.41975308641975,0)" xlink:href="#aj"/><use transform="matrix(0.06172839506172839,0,0,0.06172839506172839,92.53086419753086,0)" xlink:href="#J"/><use transform="matrix(0.06172839506172839,0,0,0.06172839506172839,104.87654320987654,0)" xlink:href="#P"/><use transform="matrix(0.06172839506172839,0,0,0.06172839506172839,111.04938271604938,0)" xlink:href="#S"/><use transform="matrix(0.06172839506172839,0,0,0.06172839506172839,123.39506172839506,0)" xlink:href="#ak"/></g><g id="i"><use transform="matrix(0.06172839506172839,0,0,0.06172839506172839,0,0)" xlink:href="#I"/><use transform="matrix(0.06172839506172839,0,0,0.06172839506172839,14.814814814814813,0)" xlink:href="#J"/><use transform="matrix(0.06172839506172839,0,0,0.06172839506172839,27.160493827160494,0)" xlink:href="#K"/><use transform="matrix(0.06172839506172839,0,0,0.06172839506172839,39.50617283950617,0)" xlink:href="#L"/></g><path d="M137 0h-34L2-248h35l83 218 83-218h36" id="al"/><path d="M206 0h-36l-40-164L89 0H53L-1-190h32L70-26l43-164h34l41 164 42-164h31" id="am"/><g id="j"><use transform="matrix(0.05,0,0,0.05,0,0)" xlink:href="#al"/><use transform="matrix(0.05,0,0,0.05,11.65,0)" xlink:href="#ae"/><use transform="matrix(0.05,0,0,0.05,15.600000000000001,0)" xlink:href="#aa"/><use transform="matrix(0.05,0,0,0.05,25.6,0)" xlink:href="#am"/></g><path d="M205 0l-28-72H64L36 0H1l101-248h38L239 0h-34zm-38-99l-47-123c-12 45-31 82-46 123h93" id="an"/><path d="M96-169c-40 0-48 33-48 73s9 75 48 75c24 0 41-14 43-38l32 2c-6 37-31 61-74 61-59 0-76-41-82-99-10-93 101-131 147-64 4 7 5 14 7 22l-32 3c-4-21-16-35-41-35" id="ao"/><g id="k"><use transform="matrix(0.05,0,0,0.05,0,0)" xlink:href="#an"/><use transform="matrix(0.05,0,0,0.05,12,0)" xlink:href="#ao"/><use transform="matrix(0.05,0,0,0.05,21,0)" xlink:href="#ao"/><use transform="matrix(0.05,0,0,0.05,30,0)" xlink:href="#Y"/><use transform="matrix(0.05,0,0,0.05,40,0)" xlink:href="#V"/><use transform="matrix(0.05,0,0,0.05,50,0)" xlink:href="#af"/><use transform="matrix(0.05,0,0,0.05,60,0)" xlink:href="#X"/></g><path d="M127-220V0H93v-220H8v-28h204v28h-85" id="ap"/><path d="M141-36C126-15 110 5 73 4 37 3 15-17 15-53c-1-64 63-63 125-63 3-35-9-54-41-54-24 1-41 7-42 31l-33-3c5-37 33-52 76-52 45 0 72 20 72 64v82c-1 20 7 32 28 27v20c-31 9-61-2-59-35zM48-53c0 20 12 33 32 33 41-3 63-29 60-74-43 2-92-5-92 41" id="aq"/><path d="M101-234c-31-9-42 10-38 44h38v23H63V0H32v-167H5v-23h27c-7-52 17-82 69-68v24" id="ar"/><g id="l"><use transform="matrix(0.05,0,0,0.05,0,0)" xlink:href="#ap"/><use transform="matrix(0.05,0,0,0.05,10.3,0)" xlink:href="#ab"/><use transform="matrix(0.05,0,0,0.05,16.25,0)" xlink:href="#aq"/><use transform="matrix(0.05,0,0,0.05,26.25,0)" xlink:href="#af"/><use transform="matrix(0.05,0,0,0.05,36.25,0)" xlink:href="#W"/><use transform="matrix(0.05,0,0,0.05,45.25,0)" xlink:href="#ar"/><use transform="matrix(0.05,0,0,0.05,50.25,0)" xlink:href="#aa"/><use transform="matrix(0.05,0,0,0.05,60.25,0)" xlink:href="#ab"/></g><path d="M63-220v92h138v28H63V0H30v-248h175v28H63" id="as"/><path d="M85-194c31 0 48 13 60 33l-1-100h32l1 261h-30c-2-10 0-23-3-31C134-8 116 4 85 4 32 4 16-35 15-94c0-66 23-100 70-100zm9 24c-40 0-46 34-46 75 0 40 6 74 45 74 42 0 51-32 51-76 0-42-9-74-50-73" id="at"/><g id="m"><use transform="matrix(0.05,0,0,0.05,0,0)" xlink:href="#as"/><use transform="matrix(0.05,0,0,0.05,10.950000000000001,0)" xlink:href="#V"/><use transform="matrix(0.05,0,0,0.05,20.950000000000003,0)" xlink:href="#af"/><use transform="matrix(0.05,0,0,0.05,30.950000000000003,0)" xlink:href="#at"/><use transform="matrix(0.05,0,0,0.05,40.95,0)" xlink:href="#W"/></g><path d="M30-248c87 1 191-15 191 75 0 78-77 80-158 76V0H30v-248zm33 125c57 0 124 11 124-50 0-59-68-47-124-48v98" id="au"/><path d="M179-190L93 31C79 59 56 82 12 73V49c39 6 53-20 64-50L1-190h34L92-34l54-156h33" id="av"/><g id="n"><use transform="matrix(0.05,0,0,0.05,0,0)" xlink:href="#au"/><use transform="matrix(0.05,0,0,0.05,12,0)" xlink:href="#aq"/><use transform="matrix(0.05,0,0,0.05,22,0)" xlink:href="#av"/></g><path d="M160-131c35 5 61 23 61 61C221 17 115-2 30 0v-248c76 3 177-17 177 60 0 33-19 50-47 57zm-97-11c50-1 110 9 110-42 0-47-63-36-110-37v79zm0 115c55-2 124 14 124-45 0-56-70-42-124-44v89" id="aw"/><path d="M24 0v-261h32V0H24" id="ax"/><g id="o"><use transform="matrix(0.05,0,0,0.05,0,0)" xlink:href="#aw"/><use transform="matrix(0.05,0,0,0.05,12,0)" xlink:href="#ae"/><use transform="matrix(0.05,0,0,0.05,15.949999999999998,0)" xlink:href="#ax"/><use transform="matrix(0.05,0,0,0.05,19.9,0)" xlink:href="#ax"/><use transform="matrix(0.05,0,0,0.05,23.849999999999998,0)" xlink:href="#W"/></g><path d="M185-189c-5-48-123-54-124 2 14 75 158 14 163 119 3 78-121 87-175 55-17-10-28-26-33-46l33-7c5 56 141 63 141-1 0-78-155-14-162-118-5-82 145-84 179-34 5 7 8 16 11 25" id="ay"/><g id="p"><use transform="matrix(0.05,0,0,0.05,0,0)" xlink:href="#ay"/><use transform="matrix(0.05,0,0,0.05,12,0)" xlink:href="#X"/><use transform="matrix(0.05,0,0,0.05,17,0)" xlink:href="#aq"/><use transform="matrix(0.05,0,0,0.05,27,0)" xlink:href="#X"/><use transform="matrix(0.05,0,0,0.05,32,0)" xlink:href="#aa"/><use transform="matrix(0.05,0,0,0.05,42,0)" xlink:href="#Z"/><use transform="matrix(0.05,0,0,0.05,56.95,0)" xlink:href="#aa"/><use transform="matrix(0.05,0,0,0.05,66.95,0)" xlink:href="#af"/><use transform="matrix(0.05,0,0,0.05,76.95,0)" xlink:href="#X"/><use transform="matrix(0.05,0,0,0.05,81.95,0)" xlink:href="#W"/></g><path d="M240 0l2-218c-23 76-54 145-80 218h-23L58-218 59 0H30v-248h44l77 211c21-75 51-140 76-211h43V0h-30" id="az"/><g id="q"><use transform="matrix(0.05,0,0,0.05,0,0)" xlink:href="#az"/><use transform="matrix(0.05,0,0,0.05,14.950000000000001,0)" xlink:href="#aq"/><use transform="matrix(0.05,0,0,0.05,24.950000000000003,0)" xlink:href="#af"/><use transform="matrix(0.05,0,0,0.05,34.95,0)" xlink:href="#aq"/><use transform="matrix(0.05,0,0,0.05,44.95,0)" xlink:href="#ad"/><use transform="matrix(0.05,0,0,0.05,54.95,0)" xlink:href="#aa"/></g><g id="r"><use transform="matrix(0.05,0,0,0.05,0,0)" xlink:href="#au"/><use transform="matrix(0.05,0,0,0.05,12,0)" xlink:href="#ab"/><use transform="matrix(0.05,0,0,0.05,17.95,0)" xlink:href="#Y"/><use transform="matrix(0.05,0,0,0.05,27.950000000000003,0)" xlink:href="#ar"/><use transform="matrix(0.05,0,0,0.05,32.95,0)" xlink:href="#ae"/><use transform="matrix(0.05,0,0,0.05,36.900000000000006,0)" xlink:href="#ax"/><use transform="matrix(0.05,0,0,0.05,40.85000000000001,0)" xlink:href="#aa"/></g><g id="s"><use transform="matrix(0.05,0,0,0.05,0,0)" xlink:href="#ac"/><use transform="matrix(0.05,0,0,0.05,10,0)" xlink:href="#Y"/><use transform="matrix(0.05,0,0,0.05,20,0)" xlink:href="#ad"/><use transform="matrix(0.05,0,0,0.05,30,0)" xlink:href="#Y"/><use transform="matrix(0.05,0,0,0.05,40,0)" xlink:href="#V"/><use transform="matrix(0.05,0,0,0.05,50,0)" xlink:href="#X"/></g><path fill="gray" d="M15-91v-56l181-69v40L49-119l147 57v40" id="aA"/><path fill="gray" d="M185-48c-13 30-37 53-82 52C43 2 14-33 14-96s30-98 90-98c62 0 83 45 84 108H66c0 31 8 55 39 56 18 0 30-7 34-22zm-45-69c5-46-57-63-70-21-2 6-4 13-4 21h74" id="aB"/><path fill="gray" d="M144 0l-44-69L55 0H2l70-98-66-92h53l41 62 40-62h54l-67 91 71 99h-54" id="aC"/><path fill="gray" d="M115-3C79 11 28 4 28-45v-112H4v-33h27l15-45h31v45h36v33H77v99c-1 23 16 31 38 25v30" id="aD"/><path fill="gray" d="M135-194c87-1 58 113 63 194h-50c-7-57 23-157-34-157-59 0-34 97-39 157H25l-1-190h47c2 12-1 28 3 38 12-26 28-41 61-42" id="aE"/><path fill="gray" d="M88-194c31-1 46 15 58 34l-1-101h50l1 261h-48c-2-10 0-23-3-31C134-8 116 4 84 4 32 4 16-41 15-95c0-56 19-97 73-99zm17 164c33 0 40-30 41-66 1-37-9-64-41-64s-38 30-39 65c0 43 13 65 39 65" id="aF"/><path fill="gray" d="M15-22v-40l146-57-146-57v-40l181 69v56" id="aG"/><g id="t"><use transform="matrix(0.04938271604938272,0,0,0.04938271604938272,0,0)" xlink:href="#aA"/><use transform="matrix(0.04938271604938272,0,0,0.04938271604938272,10.370370370370372,0)" xlink:href="#aA"/><use transform="matrix(0.04938271604938272,0,0,0.04938271604938272,20.740740740740744,0)" xlink:href="#aB"/><use transform="matrix(0.04938271604938272,0,0,0.04938271604938272,30.617283950617285,0)" xlink:href="#aC"/><use transform="matrix(0.04938271604938272,0,0,0.04938271604938272,40.49382716049384,0)" xlink:href="#aD"/><use transform="matrix(0.04938271604938272,0,0,0.04938271604938272,46.37037037037038,0)" xlink:href="#aB"/><use transform="matrix(0.04938271604938272,0,0,0.04938271604938272,56.24691358024693,0)" xlink:href="#aE"/><use transform="matrix(0.04938271604938272,0,0,0.04938271604938272,67.06172839506173,0)" xlink:href="#aF"/><use transform="matrix(0.04938271604938272,0,0,0.04938271604938272,77.87654320987654,0)" xlink:href="#aG"/><use transform="matrix(0.04938271604938272,0,0,0.04938271604938272,88.24691358024691,0)" xlink:href="#aG"/></g></defs></g></svg>